# xmcd
#
# Track frame offsets:
#	150
#	17570
#	32480
#	43391
#	68053
#	86654
#	103759
#	120893
#	142667
#	163801
#	177362
#	195795
#	217557
#	235450
#	254647
#	265335
#
# Disc length: 3858 seconds
#
# Revision: 1
# Processed by: cddbd v1.5.2PL0 Copyright (c) Steve Scherf et al.
# Submitted via: audiograbber 1.83.01
#
DISCID=d10f1010
DTITLE=Dave Minda's Fatback Blues Band - I Toast You
DYEAR=1900
DGENRE=
TTITLE0=So Complicated
TTITLE1=Crazy
TTITLE2=Lockdown!
TTITLE3=Drunk On Cheap Whiskey
TTITLE4=Tired Of Being Alone
TTITLE5=I'm The Boss Man
TTITLE6=Treat Me Right
TTITLE7=You Were Meant For Me
TTITLE8=Since My Baby's Gone
TTITLE9=Homebrew
TTITLE10=In The Grooveyard
TTITLE11=Can't You See What You Do To Me?
TTITLE12=Voodoo Man
TTITLE13=Are You Ready?
TTITLE14=Lockdown! (Reprise)
TTITLE15=Young Sensation
EXTD=
EXTT0=
EXTT1=
EXTT2=
EXTT3=
EXTT4=
EXTT5=
EXTT6=
EXTT7=
EXTT8=
EXTT9=
EXTT10=
EXTT11=
EXTT12=
EXTT13=
EXTT14=
EXTT15=
PLAYORDER=
